<svg xmlns="http://www.w3.org/2000/svg" width="760" height="420" viewBox="0 0 760 420">
  <rect width="760" height="420" fill="#0f172a"/>

  <text x="380" y="38" text-anchor="middle" fill="#e2e8f0" font-size="22" font-family="sans-serif">箱ひげ図（A班・B班）</text>

  <line x1="90" y1="330" x2="670" y2="330" stroke="#94a3b8" stroke-width="2"/>
  <text x="675" y="336" fill="#cbd5e1" font-size="13" font-family="sans-serif">値</text>

  <line x1="90" y1="324" x2="90" y2="336" stroke="#94a3b8" stroke-width="2"/>
  <line x1="170" y1="324" x2="170" y2="336" stroke="#94a3b8" stroke-width="2"/>
  <line x1="250" y1="324" x2="250" y2="336" stroke="#94a3b8" stroke-width="2"/>
  <line x1="330" y1="324" x2="330" y2="336" stroke="#94a3b8" stroke-width="2"/>
  <line x1="410" y1="324" x2="410" y2="336" stroke="#94a3b8" stroke-width="2"/>
  <line x1="490" y1="324" x2="490" y2="336" stroke="#94a3b8" stroke-width="2"/>
  <line x1="570" y1="324" x2="570" y2="336" stroke="#94a3b8" stroke-width="2"/>
  <line x1="650" y1="324" x2="650" y2="336" stroke="#94a3b8" stroke-width="2"/>

  <text x="84" y="355" fill="#cbd5e1" font-size="12" font-family="sans-serif">0</text>
  <text x="162" y="355" fill="#cbd5e1" font-size="12" font-family="sans-serif">10</text>
  <text x="242" y="355" fill="#cbd5e1" font-size="12" font-family="sans-serif">20</text>
  <text x="322" y="355" fill="#cbd5e1" font-size="12" font-family="sans-serif">30</text>
  <text x="402" y="355" fill="#cbd5e1" font-size="12" font-family="sans-serif">40</text>
  <text x="482" y="355" fill="#cbd5e1" font-size="12" font-family="sans-serif">50</text>
  <text x="562" y="355" fill="#cbd5e1" font-size="12" font-family="sans-serif">60</text>
  <text x="642" y="355" fill="#cbd5e1" font-size="12" font-family="sans-serif">70</text>

  <text x="48" y="145" fill="#e2e8f0" font-size="18" font-family="sans-serif">A班</text>
  <line x1="170" y1="140" x2="250" y2="140" stroke="#38bdf8" stroke-width="3"/>
  <rect x="250" y="118" width="160" height="44" fill="#0ea5e9" opacity="0.35" stroke="#7dd3fc" stroke-width="2"/>
  <line x1="330" y1="118" x2="330" y2="162" stroke="#f8fafc" stroke-width="3"/>
  <line x1="410" y1="140" x2="490" y2="140" stroke="#38bdf8" stroke-width="3"/>
  <line x1="170" y1="128" x2="170" y2="152" stroke="#38bdf8" stroke-width="3"/>
  <line x1="490" y1="128" x2="490" y2="152" stroke="#38bdf8" stroke-width="3"/>

  <text x="48" y="255" fill="#e2e8f0" font-size="18" font-family="sans-serif">B班</text>
  <line x1="130" y1="250" x2="210" y2="250" stroke="#a78bfa" stroke-width="3"/>
  <rect x="210" y="228" width="240" height="44" fill="#8b5cf6" opacity="0.3" stroke="#c4b5fd" stroke-width="2"/>
  <line x1="266" y1="228" x2="266" y2="272" stroke="#f8fafc" stroke-width="3"/>
  <line x1="450" y1="250" x2="570" y2="250" stroke="#a78bfa" stroke-width="3"/>
  <line x1="130" y1="238" x2="130" y2="262" stroke="#a78bfa" stroke-width="3"/>
  <line x1="570" y1="238" x2="570" y2="262" stroke="#a78bfa" stroke-width="3"/>

  <text x="170" y="105" text-anchor="middle" fill="#bae6fd" font-size="11" font-family="sans-serif">min=10</text>
  <text x="250" y="105" text-anchor="middle" fill="#bae6fd" font-size="11" font-family="sans-serif">Q1=20</text>
  <text x="330" y="105" text-anchor="middle" fill="#bae6fd" font-size="11" font-family="sans-serif">med=30</text>
  <text x="410" y="105" text-anchor="middle" fill="#bae6fd" font-size="11" font-family="sans-serif">Q3=40</text>
  <text x="490" y="105" text-anchor="middle" fill="#bae6fd" font-size="11" font-family="sans-serif">max=50</text>

  <text x="130" y="293" text-anchor="middle" fill="#ddd6fe" font-size="11" font-family="sans-serif">min=5</text>
  <text x="210" y="293" text-anchor="middle" fill="#ddd6fe" font-size="11" font-family="sans-serif">Q1=15</text>
  <text x="266" y="293" text-anchor="middle" fill="#ddd6fe" font-size="11" font-family="sans-serif">med=22</text>
  <text x="450" y="293" text-anchor="middle" fill="#ddd6fe" font-size="11" font-family="sans-serif">Q3=45</text>
  <text x="570" y="293" text-anchor="middle" fill="#ddd6fe" font-size="11" font-family="sans-serif">max=60</text>
</svg>
