<svg xmlns="http://www.w3.org/2000/svg" width="760" height="420" viewBox="0 0 760 420">
  <rect width="760" height="420" fill="#0f172a"/>

  <text x="380" y="38" text-anchor="middle" fill="#e2e8f0" font-size="22" font-family="sans-serif">散布図（学習時間と得点）</text>

  <line x1="90" y1="340" x2="670" y2="340" stroke="#94a3b8" stroke-width="2"/>
  <line x1="90" y1="80" x2="90" y2="340" stroke="#94a3b8" stroke-width="2"/>

  <line x1="90" y1="340" x2="670" y2="80" stroke="#334155" stroke-width="1" stroke-dasharray="6 6"/>

  <line x1="140" y1="340" x2="140" y2="80" stroke="#1e293b" stroke-width="1"/>
  <line x1="190" y1="340" x2="190" y2="80" stroke="#1e293b" stroke-width="1"/>
  <line x1="240" y1="340" x2="240" y2="80" stroke="#1e293b" stroke-width="1"/>
  <line x1="290" y1="340" x2="290" y2="80" stroke="#1e293b" stroke-width="1"/>
  <line x1="340" y1="340" x2="340" y2="80" stroke="#1e293b" stroke-width="1"/>
  <line x1="390" y1="340" x2="390" y2="80" stroke="#1e293b" stroke-width="1"/>
  <line x1="440" y1="340" x2="440" y2="80" stroke="#1e293b" stroke-width="1"/>
  <line x1="490" y1="340" x2="490" y2="80" stroke="#1e293b" stroke-width="1"/>
  <line x1="540" y1="340" x2="540" y2="80" stroke="#1e293b" stroke-width="1"/>
  <line x1="590" y1="340" x2="590" y2="80" stroke="#1e293b" stroke-width="1"/>
  <line x1="640" y1="340" x2="640" y2="80" stroke="#1e293b" stroke-width="1"/>

  <line x1="90" y1="300" x2="670" y2="300" stroke="#1e293b" stroke-width="1"/>
  <line x1="90" y1="260" x2="670" y2="260" stroke="#1e293b" stroke-width="1"/>
  <line x1="90" y1="220" x2="670" y2="220" stroke="#1e293b" stroke-width="1"/>
  <line x1="90" y1="180" x2="670" y2="180" stroke="#1e293b" stroke-width="1"/>
  <line x1="90" y1="140" x2="670" y2="140" stroke="#1e293b" stroke-width="1"/>
  <line x1="90" y1="100" x2="670" y2="100" stroke="#1e293b" stroke-width="1"/>

  <text x="676" y="346" fill="#cbd5e1" font-size="13" font-family="sans-serif">学習時間 x</text>
  <text x="30" y="86" fill="#cbd5e1" font-size="13" font-family="sans-serif">得点 y</text>

  <text x="86" y="358" fill="#cbd5e1" font-size="11" font-family="sans-serif">0</text>
  <text x="140" y="358" fill="#cbd5e1" font-size="11" font-family="sans-serif">1</text>
  <text x="190" y="358" fill="#cbd5e1" font-size="11" font-family="sans-serif">2</text>
  <text x="240" y="358" fill="#cbd5e1" font-size="11" font-family="sans-serif">3</text>
  <text x="290" y="358" fill="#cbd5e1" font-size="11" font-family="sans-serif">4</text>
  <text x="340" y="358" fill="#cbd5e1" font-size="11" font-family="sans-serif">5</text>
  <text x="390" y="358" fill="#cbd5e1" font-size="11" font-family="sans-serif">6</text>
  <text x="440" y="358" fill="#cbd5e1" font-size="11" font-family="sans-serif">7</text>
  <text x="490" y="358" fill="#cbd5e1" font-size="11" font-family="sans-serif">8</text>
  <text x="540" y="358" fill="#cbd5e1" font-size="11" font-family="sans-serif">9</text>
  <text x="590" y="358" fill="#cbd5e1" font-size="11" font-family="sans-serif">10</text>

  <text x="74" y="344" fill="#cbd5e1" font-size="11" font-family="sans-serif">0</text>
  <text x="74" y="304" fill="#cbd5e1" font-size="11" font-family="sans-serif">2</text>
  <text x="74" y="264" fill="#cbd5e1" font-size="11" font-family="sans-serif">4</text>
  <text x="74" y="224" fill="#cbd5e1" font-size="11" font-family="sans-serif">6</text>
  <text x="74" y="184" fill="#cbd5e1" font-size="11" font-family="sans-serif">8</text>
  <text x="70" y="144" fill="#cbd5e1" font-size="11" font-family="sans-serif">10</text>

  <circle cx="140" cy="300" r="6" fill="#22d3ee"/>
  <circle cx="190" cy="270" r="6" fill="#22d3ee"/>
  <circle cx="240" cy="245" r="6" fill="#22d3ee"/>
  <circle cx="290" cy="220" r="6" fill="#22d3ee"/>
  <circle cx="340" cy="195" r="6" fill="#22d3ee"/>
  <circle cx="390" cy="180" r="6" fill="#22d3ee"/>
  <circle cx="440" cy="160" r="6" fill="#22d3ee"/>
  <circle cx="490" cy="140" r="6" fill="#22d3ee"/>

  <circle cx="540" cy="270" r="7" fill="#f43f5e"/>
  <text x="552" y="265" fill="#fecdd3" font-size="14" font-family="sans-serif" font-weight="700">Z</text>

  <text x="560" y="112" fill="#94a3b8" font-size="12" font-family="sans-serif">傾向線（参考）</text>
</svg>
